<svg xmlns="http://www.w3.org/2000/svg" xmlns:xlink="http://www.w3.org/1999/xlink" version="1.1" width="256" height="256" viewBox="0 0 256 256" xml:space="preserve">
<desc>Created with Fabric.js 1.7.22</desc>
<defs>
</defs>
<g transform="translate(128 128) scale(0.72 0.72)" style="">
	<g style="stroke: none; stroke-width: 0; stroke-dasharray: none; stroke-linecap: butt; stroke-linejoin: miter; stroke-miterlimit: 10; fill: none; fill-rule: nonzero; opacity: 1;" transform="translate(-175.05 -175.05000000000004) scale(3.89 3.89)" >
	<path d="M 33.578 56.169 c 0 2.642 2.142 4.784 4.784 4.784 H 79.95 c 2.642 0 4.784 -2.142 4.784 -4.784 V 28.566 c 0 -2.642 -2.142 -4.784 -4.784 -4.784 H 38.362 c -2.642 0 -4.784 2.142 -4.784 4.784 V 56.169 z" style="stroke: none; stroke-width: 1; stroke-dasharray: none; stroke-linecap: butt; stroke-linejoin: miter; stroke-miterlimit: 10; fill: rgb(247,221,35); fill-rule: nonzero; opacity: 1;" transform=" matrix(1 0 0 1 0 0) " stroke-linecap="round" />
	<path d="M 39.635 43.803 H 1.436 C 0.643 43.803 0 43.161 0 42.367 c 0 -0.793 0.643 -1.436 1.436 -1.436 h 38.199 c 0.793 0 1.436 0.643 1.436 1.436 C 41.071 43.161 40.428 43.803 39.635 43.803 z" style="stroke: none; stroke-width: 1; stroke-dasharray: none; stroke-linecap: butt; stroke-linejoin: miter; stroke-miterlimit: 10; fill: rgb(247,221,35); fill-rule: nonzero; opacity: 1;" transform=" matrix(1 0 0 1 0 0) " stroke-linecap="round" />
	<path d="M 35.186 35.933 H 17.334 c -0.793 0 -1.436 -0.643 -1.436 -1.436 c 0 -0.793 0.643 -1.436 1.436 -1.436 h 17.852 c 0.793 0 1.436 0.643 1.436 1.436 C 36.622 35.29 35.98 35.933 35.186 35.933 z" style="stroke: none; stroke-width: 1; stroke-dasharray: none; stroke-linecap: butt; stroke-linejoin: miter; stroke-miterlimit: 10; fill: rgb(247,221,35); fill-rule: nonzero; opacity: 1;" transform=" matrix(1 0 0 1 0 0) " stroke-linecap="round" />
	<path d="M 11.58 35.933 H 6.662 c -0.793 0 -1.436 -0.643 -1.436 -1.436 c 0 -0.793 0.643 -1.436 1.436 -1.436 h 4.918 c 0.793 0 1.436 0.643 1.436 1.436 C 13.016 35.29 12.373 35.933 11.58 35.933 z" style="stroke: none; stroke-width: 1; stroke-dasharray: none; stroke-linecap: butt; stroke-linejoin: miter; stroke-miterlimit: 10; fill: rgb(247,221,35); fill-rule: nonzero; opacity: 1;" transform=" matrix(1 0 0 1 0 0) " stroke-linecap="round" />
	<path d="M 35.937 51.673 h -24.1 c -0.793 0 -1.436 -0.643 -1.436 -1.436 s 0.643 -1.436 1.436 -1.436 h 24.1 c 0.793 0 1.436 0.643 1.436 1.436 S 36.73 51.673 35.937 51.673 z" style="stroke: none; stroke-width: 1; stroke-dasharray: none; stroke-linecap: butt; stroke-linejoin: miter; stroke-miterlimit: 10; fill: rgb(247,221,35); fill-rule: nonzero; opacity: 1;" transform=" matrix(1 0 0 1 0 0) " stroke-linecap="round" />
	<path d="M 83.779 66.218 H 42.192 c -3.43 0 -6.221 -2.79 -6.221 -6.22 c 0 -0.793 0.643 -1.436 1.436 -1.436 c 0.793 0 1.436 0.643 1.436 1.436 c 0 1.846 1.502 3.347 3.348 3.347 h 41.588 c 1.847 0 3.348 -1.502 3.348 -3.347 V 32.396 c 0 -1.846 -1.502 -3.348 -3.348 -3.348 H 42.192 c -1.846 0 -3.348 1.502 -3.348 3.348 c 0 0.793 -0.643 1.436 -1.436 1.436 c -0.793 0 -1.436 -0.643 -1.436 -1.436 c 0 -3.43 2.791 -6.221 6.221 -6.221 h 41.588 c 3.43 0 6.221 2.791 6.221 6.221 v 27.603 C 90 63.428 87.209 66.218 83.779 66.218 z" style="stroke: none; stroke-width: 1; stroke-dasharray: none; stroke-linecap: butt; stroke-linejoin: miter; stroke-miterlimit: 10; fill: rgb(0,0,0); fill-rule: nonzero; opacity: 1;" transform=" matrix(1 0 0 1 0 0) " stroke-linecap="round" />
	<path d="M 62.986 52.513 c -0.348 0 -0.697 -0.126 -0.971 -0.378 L 43.235 34.907 c -0.584 -0.536 -0.624 -1.445 -0.087 -2.029 c 0.537 -0.583 1.445 -0.623 2.029 -0.087 l 17.809 16.338 L 80.795 32.79 c 0.585 -0.535 1.493 -0.496 2.029 0.087 c 0.536 0.584 0.496 1.493 -0.088 2.029 l -18.78 17.228 C 63.682 52.387 63.334 52.513 62.986 52.513 z" style="stroke: none; stroke-width: 1; stroke-dasharray: none; stroke-linecap: butt; stroke-linejoin: miter; stroke-miterlimit: 10; fill: rgb(0,0,0); fill-rule: nonzero; opacity: 1;" transform=" matrix(1 0 0 1 0 0) " stroke-linecap="round" />
	<path d="M 44.206 59.982 c -0.388 0 -0.776 -0.156 -1.059 -0.466 c -0.536 -0.584 -0.497 -1.492 0.087 -2.029 l 13.461 -12.349 c 0.585 -0.535 1.492 -0.496 2.029 0.087 c 0.536 0.585 0.496 1.493 -0.088 2.029 l -13.46 12.349 C 44.901 59.857 44.553 59.982 44.206 59.982 z" style="stroke: none; stroke-width: 1; stroke-dasharray: none; stroke-linecap: butt; stroke-linejoin: miter; stroke-miterlimit: 10; fill: rgb(0,0,0); fill-rule: nonzero; opacity: 1;" transform=" matrix(1 0 0 1 0 0) " stroke-linecap="round" />
	<path d="M 81.765 59.982 c -0.347 0 -0.695 -0.125 -0.971 -0.378 l -13.46 -12.349 c -0.584 -0.536 -0.624 -1.445 -0.088 -2.029 c 0.537 -0.584 1.445 -0.623 2.029 -0.087 l 13.46 12.349 c 0.584 0.537 0.624 1.445 0.088 2.029 C 82.541 59.826 82.153 59.982 81.765 59.982 z" style="stroke: none; stroke-width: 1; stroke-dasharray: none; stroke-linecap: butt; stroke-linejoin: miter; stroke-miterlimit: 10; fill: rgb(0,0,0); fill-rule: nonzero; opacity: 1;" transform=" matrix(1 0 0 1 0 0) " stroke-linecap="round" />
	<path d="M 43.465 47.633 H 5.266 c -0.793 0 -1.436 -0.643 -1.436 -1.436 c 0 -0.793 0.643 -1.436 1.436 -1.436 h 38.199 c 0.793 0 1.436 0.643 1.436 1.436 C 44.901 46.99 44.258 47.633 43.465 47.633 z" style="stroke: none; stroke-width: 1; stroke-dasharray: none; stroke-linecap: butt; stroke-linejoin: miter; stroke-miterlimit: 10; fill: rgb(0,0,0); fill-rule: nonzero; opacity: 1;" transform=" matrix(1 0 0 1 0 0) " stroke-linecap="round" />
	<path d="M 39.016 39.763 H 21.164 c -0.793 0 -1.436 -0.643 -1.436 -1.436 c 0 -0.793 0.643 -1.436 1.436 -1.436 h 17.852 c 0.793 0 1.436 0.643 1.436 1.436 C 40.452 39.12 39.809 39.763 39.016 39.763 z" style="stroke: none; stroke-width: 1; stroke-dasharray: none; stroke-linecap: butt; stroke-linejoin: miter; stroke-miterlimit: 10; fill: rgb(0,0,0); fill-rule: nonzero; opacity: 1;" transform=" matrix(1 0 0 1 0 0) " stroke-linecap="round" />
	<path d="M 15.41 39.763 h -4.918 c -0.793 0 -1.436 -0.643 -1.436 -1.436 c 0 -0.793 0.643 -1.436 1.436 -1.436 h 4.918 c 0.793 0 1.436 0.643 1.436 1.436 C 16.846 39.12 16.203 39.763 15.41 39.763 z" style="stroke: none; stroke-width: 1; stroke-dasharray: none; stroke-linecap: butt; stroke-linejoin: miter; stroke-miterlimit: 10; fill: rgb(0,0,0); fill-rule: nonzero; opacity: 1;" transform=" matrix(1 0 0 1 0 0) " stroke-linecap="round" />
	<path d="M 39.767 55.503 h -24.1 c -0.793 0 -1.436 -0.643 -1.436 -1.436 c 0 -0.793 0.643 -1.436 1.436 -1.436 h 24.1 c 0.793 0 1.436 0.643 1.436 1.436 C 41.203 54.86 40.56 55.503 39.767 55.503 z" style="stroke: none; stroke-width: 1; stroke-dasharray: none; stroke-linecap: butt; stroke-linejoin: miter; stroke-miterlimit: 10; fill: rgb(0,0,0); fill-rule: nonzero; opacity: 1;" transform=" matrix(1 0 0 1 0 0) " stroke-linecap="round" />
</g>
</g>
</svg>